TITLE ""
FILE "Step2_Track13.mp3" MP3
  TRACK 01 AUDIO
    TITLE "Step2_Track13_01"
    INDEX 01 00:00:00
  TRACK 02 AUDIO
    TITLE "Step2_Track13_02"
    INDEX 01 00:00:24
  TRACK 03 AUDIO
    TITLE "Step2_Track13_03"
    INDEX 01 00:01:74
  TRACK 04 AUDIO
    TITLE "Step2_Track13_04"
    INDEX 01 00:02:54
  TRACK 05 AUDIO
    TITLE "Step2_Track13_05"
    INDEX 01 00:03:50
  TRACK 06 AUDIO
    TITLE "Step2_Track13_06"
    INDEX 01 00:03:65
  TRACK 07 AUDIO
    TITLE "Step2_Track13_07"
    INDEX 01 00:06:50
  TRACK 08 AUDIO
    TITLE "Step2_Track13_08"
    INDEX 01 00:07:03
  TRACK 09 AUDIO
    TITLE "Step2_Track13_09"
    INDEX 01 00:08:00
  TRACK 10 AUDIO
    TITLE "Step2_Track13_10"
    INDEX 01 00:08:12
  TRACK 11 AUDIO
    TITLE "Step2_Track13_11"
    INDEX 01 00:10:58
  TRACK 12 AUDIO
    TITLE "Step2_Track13_12"
    INDEX 01 00:11:00
  TRACK 13 AUDIO
    TITLE "Step2_Track13_13"
    INDEX 01 00:12:04
  TRACK 14 AUDIO
    TITLE "Step2_Track13_14"
    INDEX 01 00:12:06
  TRACK 15 AUDIO
    TITLE "Step2_Track13_15"
    INDEX 01 00:13:74
  TRACK 16 AUDIO
    TITLE "Step2_Track13_16"
    INDEX 01 00:14:28
  TRACK 17 AUDIO
    TITLE "Step2_Track13_17"
    INDEX 01 00:15:31
  TRACK 18 AUDIO
    TITLE "Step2_Track13_18"
    INDEX 01 00:15:47
  TRACK 19 AUDIO
    TITLE "Step2_Track13_19"
    INDEX 01 00:17:50
  TRACK 20 AUDIO
    TITLE "Step2_Track13_20"
    INDEX 01 00:18:08
  TRACK 21 AUDIO
    TITLE "Step2_Track13_21"
    INDEX 01 00:19:02
  TRACK 22 AUDIO
    TITLE "Step2_Track13_22"
    INDEX 01 00:19:23
  TRACK 23 AUDIO
    TITLE "Step2_Track13_23"
    INDEX 01 00:21:58
  TRACK 24 AUDIO
    TITLE "Step2_Track13_24"
    INDEX 01 00:21:71
  TRACK 25 AUDIO
    TITLE "Step2_Track13_25"
    INDEX 01 00:23:09
  TRACK 26 AUDIO
    TITLE "Step2_Track13_26"
    INDEX 01 00:23:11
  TRACK 27 AUDIO
    TITLE "Step2_Track13_27"
    INDEX 01 00:26:29
  TRACK 28 AUDIO
    TITLE "Step2_Track13_28"
    INDEX 01 00:26:51
  TRACK 29 AUDIO
    TITLE "Step2_Track13_29"
    INDEX 01 00:27:50
  TRACK 30 AUDIO
    TITLE "Step2_Track13_30"
    INDEX 01 00:27:62
  TRACK 31 AUDIO
    TITLE "Step2_Track13_31"
    INDEX 01 00:29:59
  TRACK 32 AUDIO
    TITLE "Step2_Track13_32"
    INDEX 01 00:30:07
  TRACK 33 AUDIO
    TITLE "Step2_Track13_33"
    INDEX 01 00:30:60
  TRACK 34 AUDIO
    TITLE "Step2_Track13_34"
    INDEX 01 00:31:05
  TRACK 35 AUDIO
    TITLE "Step2_Track13_35"
    INDEX 01 00:34:27
  TRACK 36 AUDIO
    TITLE "Step2_Track13_36"
    INDEX 01 00:34:46
  TRACK 37 AUDIO
    TITLE "Step2_Track13_37"
    INDEX 01 00:35:50
  TRACK 38 AUDIO
    TITLE "Step2_Track13_38"
    INDEX 01 00:35:54
  TRACK 39 AUDIO
    TITLE "Step2_Track13_39"
    INDEX 01 00:37:17
  TRACK 40 AUDIO
    TITLE "Step2_Track13_40"
    INDEX 01 00:37:72
  TRACK 41 AUDIO
    TITLE "Step2_Track13_41"
    INDEX 01 00:38:72
  TRACK 42 AUDIO
    TITLE "Step2_Track13_42"
    INDEX 01 00:39:10
  TRACK 43 AUDIO
    TITLE "Step2_Track13_43"
    INDEX 01 00:42:40
